<svg xmlns="http://www.w3.org/2000/svg" width="977" height="915" viewBox="0 0 977 915" fill="none"><circle cx="572.5" cy="401.5" r="299.5" fill="url(#paint0_radial_1292_539)"/><path fill-rule="evenodd" clip-rule="evenodd" d="M547.203 114.772L0.516642 -215.144L1.03333 -216L548.17 114.188L976 -144L976.517 -143.144L549.138 114.772L645.107 172.688L976 -27L976.517 -26.1438L646.075 173.272L742.045 231.188L976 90L976.517 90.8562L743.012 231.772L837.325 288.688L976 205L976.517 205.856L838.293 289.272L935.091 347.688L976 323L976.517 323.856L936.058 348.272L977.033 373L976.517 373.856L935.091 348.856L839.121 406.772L934.262 464.188L976 439L976.517 439.856L935.23 464.772L977.033 490L976.517 490.856L934.262 465.356L838.293 523.272L977.033 607L976.517 607.856L837.325 523.856L743.012 580.772L977.033 722L976.517 722.856L742.045 581.356L645.247 639.772L977.033 840L976.517 840.856L644.279 640.356L549.138 697.772L977.033 956L976.517 956.856L548.17 698.356L0.516687 1028.86L0 1028L547.203 697.772L452.062 640.356L0.516687 912.856L0 912L451.094 639.772L354.296 581.356L0.516687 794.856L0 794L353.328 580.772L259.016 523.856L0.516687 679.856L0 679L258.048 523.272L162.079 465.356L0.516687 562.856L0 562L161.111 464.772L65.1415 406.856L0.516687 445.856L0 445L64.1737 406.272L0.516642 367.856L1.03333 367L65.1415 405.688L160.282 348.272L0.516642 251.856L1.03333 251L161.25 347.688L258.048 289.272L0.516642 133.856L1.03333 133L259.016 288.688L353.328 231.772L0.516642 18.8562L1.03333 18L354.296 231.188L450.265 173.272L0.516642 -98.1438L1.03333 -99L451.233 172.688L547.203 114.772ZM66.1092 406.272L162.079 464.188L257.22 406.772L161.25 348.856L66.1092 406.272ZM163.046 464.772L259.016 522.688L354.157 465.272L258.187 407.356L163.046 464.772ZM259.984 523.272L354.296 580.188L449.437 522.772L355.124 465.856L259.984 523.272ZM355.264 580.772L452.062 639.188L547.203 581.772L450.405 523.356L355.264 580.772ZM453.029 639.772L548.17 697.188L643.311 639.772L548.17 582.356L453.029 639.772ZM838.153 407.356L933.294 464.772L837.325 522.688L742.184 465.272L838.153 407.356ZM741.216 465.856L836.357 523.272L742.045 580.188L646.904 522.772L741.216 465.856ZM645.936 523.356L741.077 580.772L644.279 639.188L549.138 581.772L645.936 523.356ZM162.218 348.272L258.187 406.188L354.985 347.772L259.016 289.856L162.218 348.272ZM259.155 406.772L355.124 464.688L451.922 406.272L355.953 348.356L259.155 406.772ZM356.092 465.272L450.405 522.188L547.203 463.772L452.89 406.856L356.092 465.272ZM451.372 522.772L548.17 581.188L644.968 522.772L548.17 464.356L451.372 522.772ZM837.325 289.856L934.123 348.272L838.153 406.188L741.355 347.772L837.325 289.856ZM740.388 348.356L837.186 406.772L741.216 464.688L644.418 406.272L740.388 348.356ZM643.451 406.856L740.248 465.272L645.936 522.188L549.138 463.772L643.451 406.856ZM259.984 289.272L355.953 347.188L450.265 290.272L354.296 232.356L259.984 289.272ZM356.921 347.772L452.89 405.688L547.203 348.772L451.233 290.856L356.921 347.772ZM453.858 406.272L548.17 463.188L642.483 406.272L548.17 349.356L453.858 406.272ZM742.045 232.356L836.357 289.272L740.388 347.188L646.075 290.272L742.045 232.356ZM645.108 290.856L739.42 347.772L643.45 405.688L549.138 348.772L645.108 290.856ZM548.17 115.356L452.201 173.272L548.17 231.188L644.14 173.272L548.17 115.356ZM645.108 173.856L549.138 231.772L645.107 289.688L741.077 231.772L645.108 173.856ZM355.264 231.772L451.233 173.856L547.203 231.772L451.233 289.688L355.264 231.772ZM548.17 232.356L452.201 290.272L548.17 348.188L644.14 290.272L548.17 232.356Z" fill="url(#paint1_radial_1292_539)" fill-opacity="0.5"/><path d="M645.516 406.103L548.018 347.856L451.516 406.103L549.013 463.856L645.516 406.103Z" fill="#4C5EFF"/><path d="M646.516 523.103L548.018 463.856L450.516 523.103L549.013 581.856L646.516 523.103Z" fill="#4758EE" fill-opacity="0.26"/><path d="M838.516 407.103L740.018 347.856L642.516 407.103L741.013 465.856L838.516 407.103Z" fill="#4758EE" fill-opacity="0.26"/><path d="M645.516 289.103L547.018 229.856L449.516 289.103L548.013 347.856L645.516 289.103Z" fill="#4758EE" fill-opacity="0.26"/><g filter="url(#filter0_b_1292_539)"><path d="M496.516 260.356L531.016 239.856L581.016 268.856V299.356L546.516 320.356L496.516 290.356V260.356Z" fill="#293AD1"/></g><g filter="url(#filter1_b_1292_539)"><path fill-rule="evenodd" clip-rule="evenodd" d="M497.188 259.961L546.017 289.357L581.017 268.857L567.808 261.196L530.517 240.357L497.188 259.961Z" fill="#D2D6FF" fill-opacity="0.83" style="mix-blend-mode:overlay"/></g><path d="M546.016 320.62V289.356L581.016 268.856V299.356L546.016 320.62Z" fill="#2B2576" fill-opacity="0.52" style="mix-blend-mode:overlay"/><circle cx="541.016" cy="237.856" r="32" fill="url(#paint2_radial_1292_539)"/><path d="M454.516 407.103L356.018 347.856L258.516 407.103L357.013 465.856L454.516 407.103Z" fill="#4758EE" fill-opacity="0.26"/><g filter="url(#filter2_b_1292_539)"><path d="M484.516 348.58L543.203 312.856L601.503 348.58V405.431L543.203 438.082L484.516 405.431V348.58Z" fill="white" fill-opacity="0.42"/></g><path fill-rule="evenodd" clip-rule="evenodd" d="M484.905 348.581L543.981 381.231L601.503 349.016V348.58L543.204 312.856L511.213 332.329L484.905 348.581Z" fill="white"/><path d="M543.59 437.314V380.463L601.501 349.349V405.816L543.59 437.314Z" fill="white" fill-opacity="0.41"/><g filter="url(#filter3_b_1292_539)"><path d="M694.516 380.356L729.016 359.856L779.016 388.856V419.356L744.516 440.356L694.516 410.356V380.356Z" fill="#293AD1"/></g><g filter="url(#filter4_b_1292_539)"><path fill-rule="evenodd" clip-rule="evenodd" d="M695.188 379.961L744.017 409.357L779.017 388.857L765.808 381.196L728.517 360.357L695.188 379.961Z" fill="#D2D6FF" fill-opacity="0.83" style="mix-blend-mode:overlay"/></g><path d="M744.016 440.62V409.356L779.016 388.856V419.356L744.016 440.62Z" fill="#2B2576" fill-opacity="0.52" style="mix-blend-mode:overlay"/><circle cx="739.016" cy="357.856" r="32" fill="url(#paint3_radial_1292_539)"/><g filter="url(#filter5_b_1292_539)"><path d="M500.516 492.356L535.016 471.856L585.016 500.856V531.356L550.516 552.356L500.516 522.356V492.356Z" fill="#293AD1"/></g><g filter="url(#filter6_b_1292_539)"><path fill-rule="evenodd" clip-rule="evenodd" d="M501.188 491.961L550.017 521.357L585.017 500.857L571.808 493.196L534.517 472.357L501.188 491.961Z" fill="#D2D6FF" fill-opacity="0.83" style="mix-blend-mode:overlay"/></g><path d="M550.016 552.62V521.356L585.016 500.856V531.356L550.016 552.62Z" fill="#2B2576" fill-opacity="0.52" style="mix-blend-mode:overlay"/><circle cx="545.016" cy="469.856" r="32" fill="url(#paint4_radial_1292_539)"/><g filter="url(#filter7_b_1292_539)"><path d="M307.516 379.356L342.016 358.856L392.016 387.856V418.356L357.516 439.356L307.516 409.356V379.356Z" fill="#293AD1"/></g><g filter="url(#filter8_b_1292_539)"><path fill-rule="evenodd" clip-rule="evenodd" d="M308.188 378.961L357.017 408.357L392.017 387.857L378.808 380.196L341.517 359.357L308.188 378.961Z" fill="#D2D6FF" fill-opacity="0.83" style="mix-blend-mode:overlay"/></g><path d="M357.016 439.62V408.356L392.016 387.856V418.356L357.016 439.62Z" fill="#2B2576" fill-opacity="0.52" style="mix-blend-mode:overlay"/><circle cx="352.016" cy="356.856" r="32" fill="url(#paint5_radial_1292_539)"/><defs><filter id="filter0_b_1292_539" x="481.516" y="224.856" width="114.5" height="110.5" filterUnits="userSpaceOnUse" color-interpolation-filters="sRGB"><feFlood flood-opacity="0" result="BackgroundImageFix"/><feGaussianBlur in="BackgroundImageFix" stdDeviation="7.5"/><feComposite in2="SourceAlpha" operator="in" result="effect1_backgroundBlur_1292_539"/><feBlend mode="normal" in="SourceGraphic" in2="effect1_backgroundBlur_1292_539" result="shape"/></filter><filter id="filter1_b_1292_539" x="482.188" y="225.357" width="113.829" height="79" filterUnits="userSpaceOnUse" color-interpolation-filters="sRGB"><feFlood flood-opacity="0" result="BackgroundImageFix"/><feGaussianBlur in="BackgroundImageFix" stdDeviation="7.5"/><feComposite in2="SourceAlpha" operator="in" result="effect1_backgroundBlur_1292_539"/><feBlend mode="normal" in="SourceGraphic" in2="effect1_backgroundBlur_1292_539" result="shape"/></filter><filter id="filter2_b_1292_539" x="469.516" y="297.856" width="146.987" height="155.226" filterUnits="userSpaceOnUse" color-interpolation-filters="sRGB"><feFlood flood-opacity="0" result="BackgroundImageFix"/><feGaussianBlur in="BackgroundImageFix" stdDeviation="7.5"/><feComposite in2="SourceAlpha" operator="in" result="effect1_backgroundBlur_1292_539"/><feBlend mode="normal" in="SourceGraphic" in2="effect1_backgroundBlur_1292_539" result="shape"/></filter><filter id="filter3_b_1292_539" x="679.516" y="344.856" width="114.5" height="110.5" filterUnits="userSpaceOnUse" color-interpolation-filters="sRGB"><feFlood flood-opacity="0" result="BackgroundImageFix"/><feGaussianBlur in="BackgroundImageFix" stdDeviation="7.5"/><feComposite in2="SourceAlpha" operator="in" result="effect1_backgroundBlur_1292_539"/><feBlend mode="normal" in="SourceGraphic" in2="effect1_backgroundBlur_1292_539" result="shape"/></filter><filter id="filter4_b_1292_539" x="680.188" y="345.357" width="113.829" height="79" filterUnits="userSpaceOnUse" color-interpolation-filters="sRGB"><feFlood flood-opacity="0" result="BackgroundImageFix"/><feGaussianBlur in="BackgroundImageFix" stdDeviation="7.5"/><feComposite in2="SourceAlpha" operator="in" result="effect1_backgroundBlur_1292_539"/><feBlend mode="normal" in="SourceGraphic" in2="effect1_backgroundBlur_1292_539" result="shape"/></filter><filter id="filter5_b_1292_539" x="485.516" y="456.856" width="114.5" height="110.5" filterUnits="userSpaceOnUse" color-interpolation-filters="sRGB"><feFlood flood-opacity="0" result="BackgroundImageFix"/><feGaussianBlur in="BackgroundImageFix" stdDeviation="7.5"/><feComposite in2="SourceAlpha" operator="in" result="effect1_backgroundBlur_1292_539"/><feBlend mode="normal" in="SourceGraphic" in2="effect1_backgroundBlur_1292_539" result="shape"/></filter><filter id="filter6_b_1292_539" x="486.188" y="457.357" width="113.829" height="79" filterUnits="userSpaceOnUse" color-interpolation-filters="sRGB"><feFlood flood-opacity="0" result="BackgroundImageFix"/><feGaussianBlur in="BackgroundImageFix" stdDeviation="7.5"/><feComposite in2="SourceAlpha" operator="in" result="effect1_backgroundBlur_1292_539"/><feBlend mode="normal" in="SourceGraphic" in2="effect1_backgroundBlur_1292_539" result="shape"/></filter><filter id="filter7_b_1292_539" x="292.516" y="343.856" width="114.5" height="110.5" filterUnits="userSpaceOnUse" color-interpolation-filters="sRGB"><feFlood flood-opacity="0" result="BackgroundImageFix"/><feGaussianBlur in="BackgroundImageFix" stdDeviation="7.5"/><feComposite in2="SourceAlpha" operator="in" result="effect1_backgroundBlur_1292_539"/><feBlend mode="normal" in="SourceGraphic" in2="effect1_backgroundBlur_1292_539" result="shape"/></filter><filter id="filter8_b_1292_539" x="293.188" y="344.357" width="113.829" height="79" filterUnits="userSpaceOnUse" color-interpolation-filters="sRGB"><feFlood flood-opacity="0" result="BackgroundImageFix"/><feGaussianBlur in="BackgroundImageFix" stdDeviation="7.5"/><feComposite in2="SourceAlpha" operator="in" result="effect1_backgroundBlur_1292_539"/><feBlend mode="normal" in="SourceGraphic" in2="effect1_backgroundBlur_1292_539" result="shape"/></filter><radialGradient id="paint0_radial_1292_539" cx="0" cy="0" r="1" gradientUnits="userSpaceOnUse" gradientTransform="translate(571.726 402.274) rotate(89.8516) scale(298.727)"><stop stop-color="#0110F1"/><stop offset="1" stop-opacity="0"/></radialGradient><radialGradient id="paint1_radial_1292_539" cx="0" cy="0" r="1" gradientUnits="userSpaceOnUse" gradientTransform="translate(577.517 438.856) rotate(111.048) scale(381.451 397.66)"><stop stop-color="white"/><stop offset="1" stop-color="white" stop-opacity="0"/></radialGradient><radialGradient id="paint2_radial_1292_539" cx="0" cy="0" r="1" gradientUnits="userSpaceOnUse" gradientTransform="translate(530.958 225.056) rotate(66.1613) scale(64.4717)"><stop stop-color="white"/><stop offset="1" stop-color="#1B24CF"/><stop offset="1" stop-color="#3841FA"/></radialGradient><radialGradient id="paint3_radial_1292_539" cx="0" cy="0" r="1" gradientUnits="userSpaceOnUse" gradientTransform="translate(728.958 345.056) rotate(66.1613) scale(64.4717)"><stop stop-color="white"/><stop offset="1" stop-color="#1B24CF"/><stop offset="1" stop-color="#3841FA"/></radialGradient><radialGradient id="paint4_radial_1292_539" cx="0" cy="0" r="1" gradientUnits="userSpaceOnUse" gradientTransform="translate(534.958 457.056) rotate(66.1613) scale(64.4717)"><stop stop-color="white"/><stop offset="1" stop-color="#1B24CF"/><stop offset="1" stop-color="#3841FA"/></radialGradient><radialGradient id="paint5_radial_1292_539" cx="0" cy="0" r="1" gradientUnits="userSpaceOnUse" gradientTransform="translate(341.958 344.056) rotate(66.1613) scale(64.4717)"><stop stop-color="white"/><stop offset="1" stop-color="#1B24CF"/><stop offset="1" stop-color="#3841FA"/></radialGradient></defs></svg>